%TF.GenerationSoftware,Altium Limited,Altium Designer,25.0.2 (28)*%
G04 Layer_Physical_Order=2*
G04 Layer_Color=16711680*
%FSLAX45Y45*%
%MOMM*%
%TF.SameCoordinates,CE7562BC-BA98-4418-B9CB-18B2976742B1*%
%TF.FilePolarity,Positive*%
%TF.FileFunction,Copper,L2,Bot,Signal*%
%TF.Part,Single*%
G01*
G75*
%TA.AperFunction,ViaPad*%
%ADD16C,1.00000*%
G36*
X2204586Y850773D02*
X2224605Y842481D01*
X2242621Y830443D01*
X2257943Y815121D01*
X2269981Y797105D01*
X2278273Y777086D01*
X2282500Y755834D01*
Y745000D01*
Y135000D01*
Y124166D01*
X2278273Y102914D01*
X2269981Y82895D01*
X2257943Y64879D01*
X2242621Y49557D01*
X2224605Y37519D01*
X2204586Y29227D01*
X2183334Y25000D01*
X131666D01*
X110414Y29227D01*
X90395Y37519D01*
X72379Y49557D01*
X57057Y64879D01*
X45019Y82895D01*
X36727Y102914D01*
X32500Y124166D01*
Y135000D01*
Y145000D01*
Y745000D01*
Y755834D01*
X36727Y777086D01*
X45019Y797105D01*
X57057Y815121D01*
X72379Y830443D01*
X90395Y842481D01*
X110414Y850773D01*
X131666Y855000D01*
X2183334D01*
X2204586Y850773D01*
D02*
G37*
%LPC*%
G36*
X1995200Y574657D02*
Y512700D01*
X2057157D01*
X2052762Y529103D01*
X2042835Y546297D01*
X2028797Y560335D01*
X2011604Y570262D01*
X1995200Y574657D01*
D02*
G37*
G36*
X1969800D02*
X1953397Y570262D01*
X1936204Y560335D01*
X1922165Y546297D01*
X1912238Y529103D01*
X1907844Y512700D01*
X1969800D01*
Y574657D01*
D02*
G37*
G36*
X927700Y524657D02*
Y462700D01*
X989657D01*
X985262Y479103D01*
X975335Y496297D01*
X961297Y510335D01*
X944104Y520262D01*
X927700Y524657D01*
D02*
G37*
G36*
X902300D02*
X885897Y520262D01*
X868704Y510335D01*
X854665Y496297D01*
X844738Y479103D01*
X840344Y462700D01*
X902300D01*
Y524657D01*
D02*
G37*
G36*
X2057157Y487300D02*
X1995200D01*
Y425343D01*
X2011604Y429738D01*
X2028797Y439665D01*
X2042835Y453703D01*
X2052762Y470897D01*
X2057157Y487300D01*
D02*
G37*
G36*
X1969800D02*
X1907844D01*
X1912238Y470897D01*
X1922165Y453703D01*
X1936204Y439665D01*
X1953397Y429738D01*
X1969800Y425343D01*
Y487300D01*
D02*
G37*
G36*
X989657Y437300D02*
X927700D01*
Y375343D01*
X944104Y379738D01*
X961297Y389665D01*
X975335Y403704D01*
X985262Y420897D01*
X989657Y437300D01*
D02*
G37*
G36*
X902300D02*
X840344D01*
X844738Y420897D01*
X854665Y403704D01*
X868704Y389665D01*
X885897Y379738D01*
X902300Y375343D01*
Y437300D01*
D02*
G37*
G36*
X535200Y362157D02*
Y300200D01*
X597157D01*
X592762Y316603D01*
X582835Y333797D01*
X568797Y347835D01*
X551603Y357762D01*
X535200Y362157D01*
D02*
G37*
G36*
X509800D02*
X493397Y357762D01*
X476204Y347835D01*
X462165Y333797D01*
X452238Y316603D01*
X447843Y300200D01*
X509800D01*
Y362157D01*
D02*
G37*
G36*
X1505200Y309657D02*
Y247700D01*
X1567157D01*
X1562762Y264103D01*
X1552835Y281297D01*
X1538797Y295335D01*
X1521604Y305262D01*
X1505200Y309657D01*
D02*
G37*
G36*
X1479800D02*
X1463397Y305262D01*
X1446204Y295335D01*
X1432165Y281297D01*
X1422238Y264103D01*
X1417843Y247700D01*
X1479800D01*
Y309657D01*
D02*
G37*
G36*
X752700Y287157D02*
Y225200D01*
X814657D01*
X810262Y241603D01*
X800335Y258797D01*
X786297Y272835D01*
X769103Y282762D01*
X752700Y287157D01*
D02*
G37*
G36*
X727300D02*
X710897Y282762D01*
X693703Y272835D01*
X679665Y258797D01*
X669738Y241603D01*
X665343Y225200D01*
X727300D01*
Y287157D01*
D02*
G37*
G36*
X597157Y274800D02*
X535200D01*
Y212843D01*
X551603Y217238D01*
X568797Y227165D01*
X582835Y241203D01*
X592762Y258397D01*
X597157Y274800D01*
D02*
G37*
G36*
X509800D02*
X447843D01*
X452238Y258397D01*
X462165Y241203D01*
X476204Y227165D01*
X493397Y217238D01*
X509800Y212843D01*
Y274800D01*
D02*
G37*
G36*
X1567157Y222300D02*
X1505200D01*
Y160343D01*
X1521604Y164738D01*
X1538797Y174665D01*
X1552835Y188703D01*
X1562762Y205897D01*
X1567157Y222300D01*
D02*
G37*
G36*
X1479800D02*
X1417843D01*
X1422238Y205897D01*
X1432165Y188703D01*
X1446204Y174665D01*
X1463397Y164738D01*
X1479800Y160343D01*
Y222300D01*
D02*
G37*
G36*
X814657Y199800D02*
X752700D01*
Y137843D01*
X769103Y142238D01*
X786297Y152165D01*
X800335Y166203D01*
X810262Y183397D01*
X814657Y199800D01*
D02*
G37*
G36*
X727300D02*
X665343D01*
X669738Y183397D01*
X679665Y166203D01*
X693703Y152165D01*
X710897Y142238D01*
X727300Y137843D01*
Y199800D01*
D02*
G37*
%LPD*%
D16*
X740000Y212500D02*
D03*
X1982500Y500000D02*
D03*
X1492500Y235000D02*
D03*
X915000Y450000D02*
D03*
X522500Y287500D02*
D03*
%TF.MD5,ea3e9da7024351fe6dea933dcafcf1ca*%
M02*
