%TF.GenerationSoftware,Altium Limited,Altium Designer,25.0.2 (28)*%
G04 Layer_Physical_Order=1*
G04 Layer_Color=255*
%FSLAX45Y45*%
%MOMM*%
%TF.SameCoordinates,CE7562BC-BA98-4418-B9CB-18B2976742B1*%
%TF.FilePolarity,Positive*%
%TF.FileFunction,Copper,L1,Top,Signal*%
%TF.Part,Single*%
G01*
G75*
%TA.AperFunction,SMDPad,CuDef*%
%ADD10R,1.00000X0.66000*%
%ADD11R,1.45000X1.30000*%
%ADD12R,2.70000X1.00000*%
%ADD13R,1.70000X0.60000*%
%TA.AperFunction,Conductor*%
%ADD14C,0.50000*%
%ADD15C,0.40000*%
%TA.AperFunction,ViaPad*%
%ADD16C,1.00000*%
D10*
X1012500Y545000D02*
D03*
Y450000D02*
D03*
Y355000D02*
D03*
X1272500D02*
D03*
Y545000D02*
D03*
D11*
X745000Y342500D02*
D03*
Y502500D02*
D03*
X1492500Y365000D02*
D03*
Y525000D02*
D03*
D12*
X2112500Y190000D02*
D03*
Y685000D02*
D03*
X202500Y195000D02*
D03*
Y690000D02*
D03*
D13*
X1792500Y375000D02*
D03*
Y500000D02*
D03*
X522500Y380000D02*
D03*
Y505000D02*
D03*
D14*
X742500Y340000D02*
X745000Y342500D01*
X742500Y215000D02*
Y340000D01*
X740000Y212500D02*
X742500Y215000D01*
X522500Y505000D02*
X770000D01*
X810000Y545000D01*
Y552500D02*
X840000Y582500D01*
X958210D02*
X987500Y553210D01*
Y553000D02*
X995500Y545000D01*
X810000D02*
Y552500D01*
X840000Y582500D02*
X958210D01*
X995500Y545000D02*
X1012500D01*
X987500Y553000D02*
Y553210D01*
X1012500Y545000D02*
X1020500Y537000D01*
X915000Y450000D02*
X1012500D01*
X522500Y287500D02*
Y380000D01*
X1492500Y235000D02*
Y365000D01*
X1792500Y500000D02*
X1982500D01*
X1152500Y392290D02*
Y507710D01*
X1020500Y363000D02*
X1123211D01*
X1020500Y537000D02*
X1123211D01*
Y363000D02*
X1152500Y392290D01*
X1123211Y537000D02*
X1152500Y507710D01*
X1012500Y355000D02*
X1020500Y363000D01*
D15*
X1737500Y375000D02*
X1791421D01*
X1512408Y504013D02*
X1601569D01*
X1694453Y411129D02*
X1704068D01*
X1727500Y385000D02*
Y387698D01*
X1272500Y543921D02*
X1272592Y543829D01*
X1473671D01*
X1727500Y385000D02*
X1737500Y375000D01*
X1492500Y523921D02*
X1512408Y504013D01*
X1601569D02*
X1694453Y411129D01*
X1704068D02*
X1727500Y387698D01*
X1473671Y543829D02*
X1492500Y525000D01*
D16*
X740000Y212500D02*
D03*
X1982500Y500000D02*
D03*
X1492500Y235000D02*
D03*
X915000Y450000D02*
D03*
X522500Y287500D02*
D03*
%TF.MD5,31a10df382c5f937f6b025cdf7aa0679*%
M02*
