%TF.GenerationSoftware,Altium Limited,Altium Designer,25.0.2 (28)*%
G04 Layer_Color=65535*
%FSLAX45Y45*%
%MOMM*%
%TF.SameCoordinates,CE7562BC-BA98-4418-B9CB-18B2976742B1*%
%TF.FilePolarity,Positive*%
%TF.FileFunction,Legend,Top*%
%TF.Part,Single*%
G01*
G75*
%TA.AperFunction,NonConductor*%
%ADD17C,0.25000*%
%ADD18C,0.20000*%
%ADD19C,0.25400*%
D17*
X920000Y545000D02*
G03*
X920000Y545000I-12500J0D01*
G01*
X1662500Y375000D02*
G03*
X1662500Y375000I-12500J0D01*
G01*
X677500Y505000D02*
G03*
X677500Y505000I-12500J0D01*
G01*
D18*
X1107500Y600000D02*
X1177500D01*
Y300000D02*
Y600000D01*
X1107500Y300000D02*
X1177500D01*
X1107500D02*
Y600000D01*
X1817500Y150000D02*
Y307500D01*
Y567500D02*
Y725000D01*
X1940000D01*
X2222500Y277500D02*
Y597500D01*
X1817500Y150000D02*
X1940000D01*
X375000Y730000D02*
X497500D01*
X92500Y282500D02*
Y602500D01*
X375000Y155000D02*
X497500D01*
Y312500D01*
Y572500D02*
Y730000D01*
D19*
X1040933Y826175D02*
Y699217D01*
X1066325Y673825D01*
X1117109D01*
X1142500Y699217D01*
Y826175D01*
X1193284Y673825D02*
X1244067D01*
X1218676D01*
Y826175D01*
X1193284Y800784D01*
X745000Y773283D02*
X719608Y798675D01*
X668825D01*
X643433Y773283D01*
Y671716D01*
X668825Y646325D01*
X719608D01*
X745000Y671716D01*
X795784Y646325D02*
X846567D01*
X821176D01*
Y798675D01*
X795784Y773283D01*
X1457109Y785784D02*
X1431717Y811175D01*
X1380933D01*
X1355541Y785784D01*
Y684217D01*
X1380933Y658825D01*
X1431717D01*
X1457109Y684217D01*
X1609459Y658825D02*
X1507892D01*
X1609459Y760392D01*
Y785784D01*
X1584067Y811175D01*
X1533284D01*
X1507892Y785784D01*
X1617109Y223675D02*
X1566325D01*
X1591717D01*
Y96717D01*
X1566325Y71325D01*
X1540933D01*
X1515541Y96717D01*
X1769459Y71325D02*
X1667892D01*
X1769459Y172892D01*
Y198284D01*
X1744067Y223675D01*
X1693284D01*
X1667892Y198284D01*
X592500Y213675D02*
X541717D01*
X567109D01*
Y86717D01*
X541717Y61325D01*
X516325D01*
X490933Y86717D01*
X643284Y61325D02*
X694067D01*
X668676D01*
Y213675D01*
X643284Y188284D01*
%TF.MD5,c47cb16925230310bdc14e44a80c087e*%
M02*
